<svg xmlns="http://www.w3.org/2000/svg" viewBox="0 0 1200 760">
  <defs><filter id="s"><feDropShadow dx="0" dy="18" stdDeviation="18" flood-opacity=".18"/></filter><linearGradient id="b" x2="1" y2="1"><stop stop-color="#123c3b"/><stop offset="1" stop-color="#26716c"/></linearGradient></defs>
  <rect x="95" y="70" width="1010" height="620" rx="24" fill="#fff" filter="url(#s)"/>
  <rect x="95" y="70" width="1010" height="54" rx="24" fill="#f2f5f4"/><circle cx="130" cy="97" r="7" fill="#ff8275"/><circle cx="153" cy="97" r="7" fill="#e0bc63"/><circle cx="176" cy="97" r="7" fill="#63bd92"/>
  <rect x="130" y="153" width="130" height="24" rx="6" fill="#143c3b"/><rect x="870" y="150" width="92" height="28" rx="14" fill="#dce8e5"/><rect x="974" y="150" width="95" height="28" rx="14" fill="#0cc8af"/>
  <rect x="130" y="212" width="940" height="270" rx="14" fill="url(#b)"/><circle cx="879" cy="345" r="102" fill="#2e8780" opacity=".7"/><path d="m820 400 64-117 63 117" fill="none" stroke="#9deae0" stroke-width="18" stroke-linecap="round"/>
  <rect x="170" y="255" width="360" height="20" rx="8" fill="#8ee6dc"/><rect x="170" y="295" width="450" height="62" rx="8" fill="#fff" opacity=".96"/><rect x="170" y="374" width="310" height="14" rx="7" fill="#cce0dc"/><rect x="170" y="405" width="135" height="40" rx="20" fill="#0cc8af"/>
  <rect x="130" y="520" width="285" height="120" rx="12" fill="#eef3f1"/><rect x="447" y="520" width="285" height="120" rx="12" fill="#eef3f1"/><rect x="764" y="520" width="306" height="120" rx="12" fill="#eef3f1"/><g fill="#0e3d3b"><circle cx="170" cy="558" r="17"/><circle cx="487" cy="558" r="17"/><circle cx="804" cy="558" r="17"/></g><g fill="#78908c"><rect x="200" y="545" width="150" height="12" rx="6"/><rect x="200" y="570" width="110" height="9" rx="4"/><rect x="517" y="545" width="150" height="12" rx="6"/><rect x="517" y="570" width="110" height="9" rx="4"/><rect x="834" y="545" width="150" height="12" rx="6"/><rect x="834" y="570" width="110" height="9" rx="4"/></g>
</svg>
