<svg xmlns="http://www.w3.org/2000/svg" width="1200" height="630" viewBox="0 0 1200 630">
  <defs>
    <linearGradient id="bg" x1="0" y1="0" x2="1" y2="1"><stop stop-color="#101416"/><stop offset="1" stop-color="#153d3c"/></linearGradient>
    <linearGradient id="teal" x1="170" y1="170" x2="330" y2="420"><stop stop-color="#00dfc4"/><stop offset="1" stop-color="#08bda8"/></linearGradient>
    <pattern id="grid" width="48" height="48" patternUnits="userSpaceOnUse"><path d="M48 0H0V48" fill="none" stroke="#fff" stroke-opacity=".045"/></pattern>
  </defs>
  <rect width="1200" height="630" rx="0" fill="url(#bg)"/>
  <rect width="1200" height="630" fill="url(#grid)"/>
  <circle cx="1040" cy="100" r="260" fill="#00dfc4" opacity=".07"/>
  <g transform="translate(86 146) scale(3.7)">
    <path d="M47 18 33 10 16 20v14l17 10 14-8" fill="none" stroke="#e9f0ee" stroke-width="8" stroke-linecap="round" stroke-linejoin="round"/>
    <path d="m17 46 14 8 17-10V30L31 20l-14 8" fill="none" stroke="url(#teal)" stroke-width="8" stroke-linecap="round" stroke-linejoin="round"/>
  </g>
  <text x="392" y="260" fill="#f4f8f7" font-family="Arial, sans-serif" font-size="66" font-weight="700" letter-spacing="-2">ConnectiveStack</text>
  <text x="395" y="326" fill="#83e3d2" font-family="Arial, sans-serif" font-size="24" font-weight="700" letter-spacing="4">WEBSITES · AI AUTOMATION · INTEGRATIONS</text>
  <text x="395" y="388" fill="#b7c9c6" font-family="Arial, sans-serif" font-size="25">Connected digital experiences built with Ajell Saliba.</text>
  <rect x="395" y="430" width="270" height="50" rx="25" fill="#08bda8"/>
  <text x="530" y="462" fill="#082b2a" text-anchor="middle" font-family="Arial, sans-serif" font-size="18" font-weight="700">connectivestack.com</text>
</svg>
