<svg xmlns="http://www.w3.org/2000/svg" viewBox="0 0 900 700">
  <defs><filter id="s"><feDropShadow dx="0" dy="12" stdDeviation="12" flood-opacity=".13"/></filter></defs>
  <rect x="70" y="50" width="760" height="600" rx="24" fill="#f8fbfc" filter="url(#s)"/><rect x="70" y="50" width="760" height="56" rx="24" fill="#24353d"/><circle cx="105" cy="78" r="6" fill="#5f7b86"/><rect x="132" y="72" width="126" height="12" rx="6" fill="#d7e4e9"/><rect x="690" y="66" width="102" height="24" rx="12" fill="#21c8b3"/>
  <path d="M216 235h180M505 235h180M216 425h180M505 425h180M305 270v118M595 270v118" fill="none" stroke="#9eb5bd" stroke-width="3" stroke-dasharray="8 8"/>
  <g filter="url(#s)"><rect x="128" y="175" width="176" height="115" rx="14" fill="#fff"/><rect x="396" y="175" width="176" height="115" rx="14" fill="#fff"/><rect x="596" y="365" width="176" height="115" rx="14" fill="#fff"/><rect x="328" y="365" width="176" height="115" rx="14" fill="#fff"/><rect x="128" y="365" width="176" height="115" rx="14" fill="#fff"/></g>
  <g font-family="Arial" fill="#1f343c"><text x="155" y="228" font-size="16" font-weight="700">Website form</text><text x="423" y="228" font-size="16" font-weight="700">Lead router</text><text x="623" y="418" font-size="16" font-weight="700">Follow-up</text><text x="355" y="418" font-size="16" font-weight="700">Calendar</text><text x="155" y="418" font-size="16" font-weight="700">CRM pipeline</text></g>
  <g fill="#89a2ab"><rect x="155" y="247" width="110" height="7" rx="3"/><rect x="423" y="247" width="110" height="7" rx="3"/><rect x="623" y="437" width="110" height="7" rx="3"/><rect x="355" y="437" width="110" height="7" rx="3"/><rect x="155" y="437" width="110" height="7" rx="3"/></g>
  <g fill="#21c8b3"><circle cx="216" cy="175" r="14"/><circle cx="484" cy="175" r="14"/><circle cx="684" cy="365" r="14"/><circle cx="416" cy="365" r="14"/><circle cx="216" cy="365" r="14"/></g>
  <rect x="128" y="535" width="644" height="67" rx="12" fill="#e4f0f1"/><circle cx="164" cy="568" r="14" fill="#21c8b3"/><rect x="192" y="553" width="165" height="10" rx="5" fill="#2d454e"/><rect x="192" y="575" width="245" height="7" rx="3" fill="#91a7af"/><rect x="650" y="550" width="92" height="34" rx="17" fill="#24353d"/>
</svg>
